<?xml version="1.0" encoding="iso-8859-1"?>
<!-- Generator: Adobe Illustrator 16.0.0, SVG Export Plug-In . SVG Version: 6.00 Build 0)  -->
<!DOCTYPE svg PUBLIC "-//W3C//DTD SVG 1.1//EN" "http://www.w3.org/Graphics/SVG/1.1/DTD/svg11.dtd">
<svg version="1.1" id="Capa_1" xmlns="http://www.w3.org/2000/svg" xmlns:xlink="http://www.w3.org/1999/xlink" x="0px" y="0px"
	 width="171.471px" height="171.471px" viewBox="0 0 171.471 171.471" style="enable-background:new 0 0 171.471 171.471;"
	 xml:space="preserve">
<g>
	<g>
		<path d="M126.265,38.97H45.206c-3.428,0-6.235,2.807-6.235,6.235v81.059c0,3.428,2.807,6.235,6.235,6.235h81.059
			c3.429,0,6.235-2.808,6.235-6.235V45.206C132.5,41.777,129.693,38.97,126.265,38.97z"/>
		<path d="M141.854,70.926h24.941c2.581,0,4.676-2.094,4.676-4.676c0-2.582-2.095-4.677-4.676-4.677h-24.941
			c-2.582,0-4.677,2.095-4.677,4.677C137.177,68.832,139.271,70.926,141.854,70.926z"/>
		<path d="M166.795,81.059h-24.941c-2.582,0-4.677,2.095-4.677,4.676c0,2.582,2.095,4.677,4.677,4.677h24.941
			c2.581,0,4.676-2.095,4.676-4.677C171.471,83.153,169.376,81.059,166.795,81.059z"/>
		<path d="M166.795,100.544h-24.941c-2.582,0-4.677,2.095-4.677,4.677c0,2.581,2.095,4.676,4.677,4.676h24.941
			c2.581,0,4.676-2.095,4.676-4.676C171.471,102.639,169.376,100.544,166.795,100.544z"/>
		<path d="M29.618,61.573H4.677C2.095,61.573,0,63.668,0,66.25c0,2.582,2.094,4.676,4.676,4.676h24.941
			c2.582,0,4.676-2.094,4.676-4.676C34.294,63.668,32.2,61.573,29.618,61.573z"/>
		<path d="M29.618,81.059H4.677C2.095,81.059,0,83.153,0,85.734c0,2.582,2.094,4.677,4.676,4.677h24.941
			c2.582,0,4.676-2.095,4.676-4.677C34.294,83.153,32.2,81.059,29.618,81.059z"/>
		<path d="M29.618,100.544H4.677c-2.582,0-4.676,2.095-4.676,4.677c0,2.581,2.094,4.676,4.676,4.676h24.941
			c2.582,0,4.676-2.095,4.676-4.676C34.294,102.639,32.2,100.544,29.618,100.544z"/>
		<path d="M66.25,34.294c2.582,0,4.676-2.095,4.676-4.677V4.676C70.927,2.094,68.832,0,66.25,0c-2.582,0-4.677,2.094-4.677,4.676
			v24.941C61.574,32.199,63.668,34.294,66.25,34.294z"/>
		<path d="M85.735,34.294c2.582,0,4.677-2.095,4.677-4.677V4.676C90.412,2.094,88.317,0,85.735,0c-2.581,0-4.676,2.094-4.676,4.676
			v24.941C81.059,32.199,83.154,34.294,85.735,34.294z"/>
		<path d="M105.221,34.294c2.582,0,4.677-2.095,4.677-4.677V4.676c0-2.582-2.095-4.676-4.677-4.676s-4.676,2.094-4.676,4.676v24.941
			C100.545,32.199,102.639,34.294,105.221,34.294z"/>
		<path d="M66.25,137.176c-2.582,0-4.677,2.095-4.677,4.677v24.941c0,2.581,2.095,4.677,4.677,4.677
			c2.582,0,4.676-2.096,4.676-4.677v-24.941C70.927,139.271,68.832,137.176,66.25,137.176z"/>
		<path d="M85.735,137.176c-2.581,0-4.676,2.095-4.676,4.677v24.941c0,2.581,2.095,4.677,4.676,4.677
			c2.582,0,4.677-2.096,4.677-4.677v-24.941C90.412,139.271,88.317,137.176,85.735,137.176z"/>
		<path d="M105.221,137.176c-2.582,0-4.676,2.095-4.676,4.677v24.941c0,2.581,2.094,4.677,4.676,4.677s4.677-2.096,4.677-4.677
			v-24.941C109.897,139.271,107.803,137.176,105.221,137.176z"/>
	</g>
</g>
<g>
</g>
<g>
</g>
<g>
</g>
<g>
</g>
<g>
</g>
<g>
</g>
<g>
</g>
<g>
</g>
<g>
</g>
<g>
</g>
<g>
</g>
<g>
</g>
<g>
</g>
<g>
</g>
<g>
</g>
</svg>
